<svg xmlns="http://www.w3.org/2000/svg" xml:space="preserve" xmlns:xlink="http://www.w3.org/1999/xlink" style="max-width: 100%;height: auto;" width="990" height="990" viewBox="0 0 990 990">
<g fill="#000000">
<g transform="translate(220,44) scale(3.7766666666667)"><rect width="6" height="6"></rect></g>
<g transform="translate(286,44) scale(3.7766666666667)"><rect width="6" height="6"></rect></g>
<g transform="translate(308,44) scale(3.7766666666667)"><rect width="6" height="6"></rect></g>
<g transform="translate(330,44) scale(3.7766666666667)"><rect width="6" height="6"></rect></g>
<g transform="translate(352,44) scale(3.7766666666667)"><rect width="6" height="6"></rect></g>
<g transform="translate(396,44) scale(3.7766666666667)"><rect width="6" height="6"></rect></g>
<g transform="translate(484,44) scale(3.7766666666667)"><rect width="6" height="6"></rect></g>
<g transform="translate(550,44) scale(3.7766666666667)"><rect width="6" height="6"></rect></g>
<g transform="translate(572,44) scale(3.7766666666667)"><rect width="6" height="6"></rect></g>
<g transform="translate(594,44) scale(3.7766666666667)"><rect width="6" height="6"></rect></g>
<g transform="translate(660,44) scale(3.7766666666667)"><rect width="6" height="6"></rect></g>
<g transform="translate(726,44) scale(3.7766666666667)"><rect width="6" height="6"></rect></g>
<g transform="translate(748,44) scale(3.7766666666667)"><rect width="6" height="6"></rect></g>
<g transform="translate(220,66) scale(3.7766666666667)"><rect width="6" height="6"></rect></g>
<g transform="translate(286,66) scale(3.7766666666667)"><rect width="6" height="6"></rect></g>
<g transform="translate(330,66) scale(3.7766666666667)"><rect width="6" height="6"></rect></g>
<g transform="translate(374,66) scale(3.7766666666667)"><rect width="6" height="6"></rect></g>
<g transform="translate(418,66) scale(3.7766666666667)"><rect width="6" height="6"></rect></g>
<g transform="translate(462,66) scale(3.7766666666667)"><rect width="6" height="6"></rect></g>
<g transform="translate(506,66) scale(3.7766666666667)"><rect width="6" height="6"></rect></g>
<g transform="translate(528,66) scale(3.7766666666667)"><rect width="6" height="6"></rect></g>
<g transform="translate(572,66) scale(3.7766666666667)"><rect width="6" height="6"></rect></g>
<g transform="translate(594,66) scale(3.7766666666667)"><rect width="6" height="6"></rect></g>
<g transform="translate(616,66) scale(3.7766666666667)"><rect width="6" height="6"></rect></g>
<g transform="translate(638,66) scale(3.7766666666667)"><rect width="6" height="6"></rect></g>
<g transform="translate(660,66) scale(3.7766666666667)"><rect width="6" height="6"></rect></g>
<g transform="translate(704,66) scale(3.7766666666667)"><rect width="6" height="6"></rect></g>
<g transform="translate(748,66) scale(3.7766666666667)"><rect width="6" height="6"></rect></g>
<g transform="translate(220,88) scale(3.7766666666667)"><rect width="6" height="6"></rect></g>
<g transform="translate(330,88) scale(3.7766666666667)"><rect width="6" height="6"></rect></g>
<g transform="translate(418,88) scale(3.7766666666667)"><rect width="6" height="6"></rect></g>
<g transform="translate(462,88) scale(3.7766666666667)"><rect width="6" height="6"></rect></g>
<g transform="translate(594,88) scale(3.7766666666667)"><rect width="6" height="6"></rect></g>
<g transform="translate(286,110) scale(3.7766666666667)"><rect width="6" height="6"></rect></g>
<g transform="translate(352,110) scale(3.7766666666667)"><rect width="6" height="6"></rect></g>
<g transform="translate(418,110) scale(3.7766666666667)"><rect width="6" height="6"></rect></g>
<g transform="translate(462,110) scale(3.7766666666667)"><rect width="6" height="6"></rect></g>
<g transform="translate(484,110) scale(3.7766666666667)"><rect width="6" height="6"></rect></g>
<g transform="translate(506,110) scale(3.7766666666667)"><rect width="6" height="6"></rect></g>
<g transform="translate(528,110) scale(3.7766666666667)"><rect width="6" height="6"></rect></g>
<g transform="translate(572,110) scale(3.7766666666667)"><rect width="6" height="6"></rect></g>
<g transform="translate(616,110) scale(3.7766666666667)"><rect width="6" height="6"></rect></g>
<g transform="translate(638,110) scale(3.7766666666667)"><rect width="6" height="6"></rect></g>
<g transform="translate(704,110) scale(3.7766666666667)"><rect width="6" height="6"></rect></g>
<g transform="translate(242,132) scale(3.7766666666667)"><rect width="6" height="6"></rect></g>
<g transform="translate(286,132) scale(3.7766666666667)"><rect width="6" height="6"></rect></g>
<g transform="translate(352,132) scale(3.7766666666667)"><rect width="6" height="6"></rect></g>
<g transform="translate(374,132) scale(3.7766666666667)"><rect width="6" height="6"></rect></g>
<g transform="translate(418,132) scale(3.7766666666667)"><rect width="6" height="6"></rect></g>
<g transform="translate(506,132) scale(3.7766666666667)"><rect width="6" height="6"></rect></g>
<g transform="translate(660,132) scale(3.7766666666667)"><rect width="6" height="6"></rect></g>
<g transform="translate(726,132) scale(3.7766666666667)"><rect width="6" height="6"></rect></g>
<g transform="translate(748,132) scale(3.7766666666667)"><rect width="6" height="6"></rect></g>
<g transform="translate(220,154) scale(3.7766666666667)"><rect width="6" height="6"></rect></g>
<g transform="translate(264,154) scale(3.7766666666667)"><rect width="6" height="6"></rect></g>
<g transform="translate(308,154) scale(3.7766666666667)"><rect width="6" height="6"></rect></g>
<g transform="translate(352,154) scale(3.7766666666667)"><rect width="6" height="6"></rect></g>
<g transform="translate(374,154) scale(3.7766666666667)"><rect width="6" height="6"></rect></g>
<g transform="translate(418,154) scale(3.7766666666667)"><rect width="6" height="6"></rect></g>
<g transform="translate(440,154) scale(3.7766666666667)"><rect width="6" height="6"></rect></g>
<g transform="translate(484,154) scale(3.7766666666667)"><rect width="6" height="6"></rect></g>
<g transform="translate(528,154) scale(3.7766666666667)"><rect width="6" height="6"></rect></g>
<g transform="translate(550,154) scale(3.7766666666667)"><rect width="6" height="6"></rect></g>
<g transform="translate(638,154) scale(3.7766666666667)"><rect width="6" height="6"></rect></g>
<g transform="translate(660,154) scale(3.7766666666667)"><rect width="6" height="6"></rect></g>
<g transform="translate(682,154) scale(3.7766666666667)"><rect width="6" height="6"></rect></g>
<g transform="translate(220,176) scale(3.7766666666667)"><rect width="6" height="6"></rect></g>
<g transform="translate(264,176) scale(3.7766666666667)"><rect width="6" height="6"></rect></g>
<g transform="translate(308,176) scale(3.7766666666667)"><rect width="6" height="6"></rect></g>
<g transform="translate(352,176) scale(3.7766666666667)"><rect width="6" height="6"></rect></g>
<g transform="translate(396,176) scale(3.7766666666667)"><rect width="6" height="6"></rect></g>
<g transform="translate(440,176) scale(3.7766666666667)"><rect width="6" height="6"></rect></g>
<g transform="translate(484,176) scale(3.7766666666667)"><rect width="6" height="6"></rect></g>
<g transform="translate(528,176) scale(3.7766666666667)"><rect width="6" height="6"></rect></g>
<g transform="translate(572,176) scale(3.7766666666667)"><rect width="6" height="6"></rect></g>
<g transform="translate(616,176) scale(3.7766666666667)"><rect width="6" height="6"></rect></g>
<g transform="translate(660,176) scale(3.7766666666667)"><rect width="6" height="6"></rect></g>
<g transform="translate(704,176) scale(3.7766666666667)"><rect width="6" height="6"></rect></g>
<g transform="translate(748,176) scale(3.7766666666667)"><rect width="6" height="6"></rect></g>
<g transform="translate(220,198) scale(3.7766666666667)"><rect width="6" height="6"></rect></g>
<g transform="translate(242,198) scale(3.7766666666667)"><rect width="6" height="6"></rect></g>
<g transform="translate(308,198) scale(3.7766666666667)"><rect width="6" height="6"></rect></g>
<g transform="translate(374,198) scale(3.7766666666667)"><rect width="6" height="6"></rect></g>
<g transform="translate(396,198) scale(3.7766666666667)"><rect width="6" height="6"></rect></g>
<g transform="translate(418,198) scale(3.7766666666667)"><rect width="6" height="6"></rect></g>
<g transform="translate(462,198) scale(3.7766666666667)"><rect width="6" height="6"></rect></g>
<g transform="translate(550,198) scale(3.7766666666667)"><rect width="6" height="6"></rect></g>
<g transform="translate(572,198) scale(3.7766666666667)"><rect width="6" height="6"></rect></g>
<g transform="translate(660,198) scale(3.7766666666667)"><rect width="6" height="6"></rect></g>
<g transform="translate(88,220) scale(3.7766666666667)"><rect width="6" height="6"></rect></g>
<g transform="translate(110,220) scale(3.7766666666667)"><rect width="6" height="6"></rect></g>
<g transform="translate(132,220) scale(3.7766666666667)"><rect width="6" height="6"></rect></g>
<g transform="translate(176,220) scale(3.7766666666667)"><rect width="6" height="6"></rect></g>
<g transform="translate(220,220) scale(3.7766666666667)"><rect width="6" height="6"></rect></g>
<g transform="translate(264,220) scale(3.7766666666667)"><rect width="6" height="6"></rect></g>
<g transform="translate(330,220) scale(3.7766666666667)"><rect width="6" height="6"></rect></g>
<g transform="translate(352,220) scale(3.7766666666667)"><rect width="6" height="6"></rect></g>
<g transform="translate(396,220) scale(3.7766666666667)"><rect width="6" height="6"></rect></g>
<g transform="translate(462,220) scale(3.7766666666667)"><rect width="6" height="6"></rect></g>
<g transform="translate(506,220) scale(3.7766666666667)"><rect width="6" height="6"></rect></g>
<g transform="translate(550,220) scale(3.7766666666667)"><rect width="6" height="6"></rect></g>
<g transform="translate(572,220) scale(3.7766666666667)"><rect width="6" height="6"></rect></g>
<g transform="translate(594,220) scale(3.7766666666667)"><rect width="6" height="6"></rect></g>
<g transform="translate(682,220) scale(3.7766666666667)"><rect width="6" height="6"></rect></g>
<g transform="translate(726,220) scale(3.7766666666667)"><rect width="6" height="6"></rect></g>
<g transform="translate(770,220) scale(3.7766666666667)"><rect width="6" height="6"></rect></g>
<g transform="translate(792,220) scale(3.7766666666667)"><rect width="6" height="6"></rect></g>
<g transform="translate(814,220) scale(3.7766666666667)"><rect width="6" height="6"></rect></g>
<g transform="translate(880,220) scale(3.7766666666667)"><rect width="6" height="6"></rect></g>
<g transform="translate(902,220) scale(3.7766666666667)"><rect width="6" height="6"></rect></g>
<g transform="translate(924,220) scale(3.7766666666667)"><rect width="6" height="6"></rect></g>
<g transform="translate(44,242) scale(3.7766666666667)"><rect width="6" height="6"></rect></g>
<g transform="translate(88,242) scale(3.7766666666667)"><rect width="6" height="6"></rect></g>
<g transform="translate(132,242) scale(3.7766666666667)"><rect width="6" height="6"></rect></g>
<g transform="translate(242,242) scale(3.7766666666667)"><rect width="6" height="6"></rect></g>
<g transform="translate(330,242) scale(3.7766666666667)"><rect width="6" height="6"></rect></g>
<g transform="translate(352,242) scale(3.7766666666667)"><rect width="6" height="6"></rect></g>
<g transform="translate(396,242) scale(3.7766666666667)"><rect width="6" height="6"></rect></g>
<g transform="translate(440,242) scale(3.7766666666667)"><rect width="6" height="6"></rect></g>
<g transform="translate(462,242) scale(3.7766666666667)"><rect width="6" height="6"></rect></g>
<g transform="translate(506,242) scale(3.7766666666667)"><rect width="6" height="6"></rect></g>
<g transform="translate(528,242) scale(3.7766666666667)"><rect width="6" height="6"></rect></g>
<g transform="translate(572,242) scale(3.7766666666667)"><rect width="6" height="6"></rect></g>
<g transform="translate(616,242) scale(3.7766666666667)"><rect width="6" height="6"></rect></g>
<g transform="translate(660,242) scale(3.7766666666667)"><rect width="6" height="6"></rect></g>
<g transform="translate(704,242) scale(3.7766666666667)"><rect width="6" height="6"></rect></g>
<g transform="translate(726,242) scale(3.7766666666667)"><rect width="6" height="6"></rect></g>
<g transform="translate(748,242) scale(3.7766666666667)"><rect width="6" height="6"></rect></g>
<g transform="translate(770,242) scale(3.7766666666667)"><rect width="6" height="6"></rect></g>
<g transform="translate(792,242) scale(3.7766666666667)"><rect width="6" height="6"></rect></g>
<g transform="translate(814,242) scale(3.7766666666667)"><rect width="6" height="6"></rect></g>
<g transform="translate(836,242) scale(3.7766666666667)"><rect width="6" height="6"></rect></g>
<g transform="translate(880,242) scale(3.7766666666667)"><rect width="6" height="6"></rect></g>
<g transform="translate(902,242) scale(3.7766666666667)"><rect width="6" height="6"></rect></g>
<g transform="translate(924,242) scale(3.7766666666667)"><rect width="6" height="6"></rect></g>
<g transform="translate(66,264) scale(3.7766666666667)"><rect width="6" height="6"></rect></g>
<g transform="translate(88,264) scale(3.7766666666667)"><rect width="6" height="6"></rect></g>
<g transform="translate(176,264) scale(3.7766666666667)"><rect width="6" height="6"></rect></g>
<g transform="translate(198,264) scale(3.7766666666667)"><rect width="6" height="6"></rect></g>
<g transform="translate(330,264) scale(3.7766666666667)"><rect width="6" height="6"></rect></g>
<g transform="translate(352,264) scale(3.7766666666667)"><rect width="6" height="6"></rect></g>
<g transform="translate(396,264) scale(3.7766666666667)"><rect width="6" height="6"></rect></g>
<g transform="translate(638,264) scale(3.7766666666667)"><rect width="6" height="6"></rect></g>
<g transform="translate(660,264) scale(3.7766666666667)"><rect width="6" height="6"></rect></g>
<g transform="translate(704,264) scale(3.7766666666667)"><rect width="6" height="6"></rect></g>
<g transform="translate(748,264) scale(3.7766666666667)"><rect width="6" height="6"></rect></g>
<g transform="translate(770,264) scale(3.7766666666667)"><rect width="6" height="6"></rect></g>
<g transform="translate(110,286) scale(3.7766666666667)"><rect width="6" height="6"></rect></g>
<g transform="translate(132,286) scale(3.7766666666667)"><rect width="6" height="6"></rect></g>
<g transform="translate(154,286) scale(3.7766666666667)"><rect width="6" height="6"></rect></g>
<g transform="translate(198,286) scale(3.7766666666667)"><rect width="6" height="6"></rect></g>
<g transform="translate(220,286) scale(3.7766666666667)"><rect width="6" height="6"></rect></g>
<g transform="translate(242,286) scale(3.7766666666667)"><rect width="6" height="6"></rect></g>
<g transform="translate(352,286) scale(3.7766666666667)"><rect width="6" height="6"></rect></g>
<g transform="translate(374,286) scale(3.7766666666667)"><rect width="6" height="6"></rect></g>
<g transform="translate(396,286) scale(3.7766666666667)"><rect width="6" height="6"></rect></g>
<g transform="translate(418,286) scale(3.7766666666667)"><rect width="6" height="6"></rect></g>
<g transform="translate(440,286) scale(3.7766666666667)"><rect width="6" height="6"></rect></g>
<g transform="translate(462,286) scale(3.7766666666667)"><rect width="6" height="6"></rect></g>
<g transform="translate(484,286) scale(3.7766666666667)"><rect width="6" height="6"></rect></g>
<g transform="translate(506,286) scale(3.7766666666667)"><rect width="6" height="6"></rect></g>
<g transform="translate(572,286) scale(3.7766666666667)"><rect width="6" height="6"></rect></g>
<g transform="translate(594,286) scale(3.7766666666667)"><rect width="6" height="6"></rect></g>
<g transform="translate(616,286) scale(3.7766666666667)"><rect width="6" height="6"></rect></g>
<g transform="translate(638,286) scale(3.7766666666667)"><rect width="6" height="6"></rect></g>
<g transform="translate(660,286) scale(3.7766666666667)"><rect width="6" height="6"></rect></g>
<g transform="translate(726,286) scale(3.7766666666667)"><rect width="6" height="6"></rect></g>
<g transform="translate(748,286) scale(3.7766666666667)"><rect width="6" height="6"></rect></g>
<g transform="translate(792,286) scale(3.7766666666667)"><rect width="6" height="6"></rect></g>
<g transform="translate(836,286) scale(3.7766666666667)"><rect width="6" height="6"></rect></g>
<g transform="translate(858,286) scale(3.7766666666667)"><rect width="6" height="6"></rect></g>
<g transform="translate(902,286) scale(3.7766666666667)"><rect width="6" height="6"></rect></g>
<g transform="translate(44,308) scale(3.7766666666667)"><rect width="6" height="6"></rect></g>
<g transform="translate(66,308) scale(3.7766666666667)"><rect width="6" height="6"></rect></g>
<g transform="translate(176,308) scale(3.7766666666667)"><rect width="6" height="6"></rect></g>
<g transform="translate(220,308) scale(3.7766666666667)"><rect width="6" height="6"></rect></g>
<g transform="translate(242,308) scale(3.7766666666667)"><rect width="6" height="6"></rect></g>
<g transform="translate(308,308) scale(3.7766666666667)"><rect width="6" height="6"></rect></g>
<g transform="translate(352,308) scale(3.7766666666667)"><rect width="6" height="6"></rect></g>
<g transform="translate(374,308) scale(3.7766666666667)"><rect width="6" height="6"></rect></g>
<g transform="translate(440,308) scale(3.7766666666667)"><rect width="6" height="6"></rect></g>
<g transform="translate(594,308) scale(3.7766666666667)"><rect width="6" height="6"></rect></g>
<g transform="translate(638,308) scale(3.7766666666667)"><rect width="6" height="6"></rect></g>
<g transform="translate(660,308) scale(3.7766666666667)"><rect width="6" height="6"></rect></g>
<g transform="translate(682,308) scale(3.7766666666667)"><rect width="6" height="6"></rect></g>
<g transform="translate(726,308) scale(3.7766666666667)"><rect width="6" height="6"></rect></g>
<g transform="translate(770,308) scale(3.7766666666667)"><rect width="6" height="6"></rect></g>
<g transform="translate(858,308) scale(3.7766666666667)"><rect width="6" height="6"></rect></g>
<g transform="translate(880,308) scale(3.7766666666667)"><rect width="6" height="6"></rect></g>
<g transform="translate(88,330) scale(3.7766666666667)"><rect width="6" height="6"></rect></g>
<g transform="translate(132,330) scale(3.7766666666667)"><rect width="6" height="6"></rect></g>
<g transform="translate(198,330) scale(3.7766666666667)"><rect width="6" height="6"></rect></g>
<g transform="translate(242,330) scale(3.7766666666667)"><rect width="6" height="6"></rect></g>
<g transform="translate(308,330) scale(3.7766666666667)"><rect width="6" height="6"></rect></g>
<g transform="translate(330,330) scale(3.7766666666667)"><rect width="6" height="6"></rect></g>
<g transform="translate(396,330) scale(3.7766666666667)"><rect width="6" height="6"></rect></g>
<g transform="translate(418,330) scale(3.7766666666667)"><rect width="6" height="6"></rect></g>
<g transform="translate(528,330) scale(3.7766666666667)"><rect width="6" height="6"></rect></g>
<g transform="translate(594,330) scale(3.7766666666667)"><rect width="6" height="6"></rect></g>
<g transform="translate(638,330) scale(3.7766666666667)"><rect width="6" height="6"></rect></g>
<g transform="translate(704,330) scale(3.7766666666667)"><rect width="6" height="6"></rect></g>
<g transform="translate(748,330) scale(3.7766666666667)"><rect width="6" height="6"></rect></g>
<g transform="translate(770,330) scale(3.7766666666667)"><rect width="6" height="6"></rect></g>
<g transform="translate(814,330) scale(3.7766666666667)"><rect width="6" height="6"></rect></g>
<g transform="translate(836,330) scale(3.7766666666667)"><rect width="6" height="6"></rect></g>
<g transform="translate(902,330) scale(3.7766666666667)"><rect width="6" height="6"></rect></g>
<g transform="translate(924,330) scale(3.7766666666667)"><rect width="6" height="6"></rect></g>
<g transform="translate(88,352) scale(3.7766666666667)"><rect width="6" height="6"></rect></g>
<g transform="translate(110,352) scale(3.7766666666667)"><rect width="6" height="6"></rect></g>
<g transform="translate(132,352) scale(3.7766666666667)"><rect width="6" height="6"></rect></g>
<g transform="translate(176,352) scale(3.7766666666667)"><rect width="6" height="6"></rect></g>
<g transform="translate(264,352) scale(3.7766666666667)"><rect width="6" height="6"></rect></g>
<g transform="translate(308,352) scale(3.7766666666667)"><rect width="6" height="6"></rect></g>
<g transform="translate(374,352) scale(3.7766666666667)"><rect width="6" height="6"></rect></g>
<g transform="translate(462,352) scale(3.7766666666667)"><rect width="6" height="6"></rect></g>
<g transform="translate(594,352) scale(3.7766666666667)"><rect width="6" height="6"></rect></g>
<g transform="translate(638,352) scale(3.7766666666667)"><rect width="6" height="6"></rect></g>
<g transform="translate(660,352) scale(3.7766666666667)"><rect width="6" height="6"></rect></g>
<g transform="translate(704,352) scale(3.7766666666667)"><rect width="6" height="6"></rect></g>
<g transform="translate(726,352) scale(3.7766666666667)"><rect width="6" height="6"></rect></g>
<g transform="translate(770,352) scale(3.7766666666667)"><rect width="6" height="6"></rect></g>
<g transform="translate(814,352) scale(3.7766666666667)"><rect width="6" height="6"></rect></g>
<g transform="translate(858,352) scale(3.7766666666667)"><rect width="6" height="6"></rect></g>
<g transform="translate(880,352) scale(3.7766666666667)"><rect width="6" height="6"></rect></g>
<g transform="translate(66,374) scale(3.7766666666667)"><rect width="6" height="6"></rect></g>
<g transform="translate(132,374) scale(3.7766666666667)"><rect width="6" height="6"></rect></g>
<g transform="translate(154,374) scale(3.7766666666667)"><rect width="6" height="6"></rect></g>
<g transform="translate(220,374) scale(3.7766666666667)"><rect width="6" height="6"></rect></g>
<g transform="translate(242,374) scale(3.7766666666667)"><rect width="6" height="6"></rect></g>
<g transform="translate(264,374) scale(3.7766666666667)"><rect width="6" height="6"></rect></g>
<g transform="translate(308,374) scale(3.7766666666667)"><rect width="6" height="6"></rect></g>
<g transform="translate(330,374) scale(3.7766666666667)"><rect width="6" height="6"></rect></g>
<g transform="translate(352,374) scale(3.7766666666667)"><rect width="6" height="6"></rect></g>
<g transform="translate(396,374) scale(3.7766666666667)"><rect width="6" height="6"></rect></g>
<g transform="translate(418,374) scale(3.7766666666667)"><rect width="6" height="6"></rect></g>
<g transform="translate(462,374) scale(3.7766666666667)"><rect width="6" height="6"></rect></g>
<g transform="translate(484,374) scale(3.7766666666667)"><rect width="6" height="6"></rect></g>
<g transform="translate(528,374) scale(3.7766666666667)"><rect width="6" height="6"></rect></g>
<g transform="translate(572,374) scale(3.7766666666667)"><rect width="6" height="6"></rect></g>
<g transform="translate(594,374) scale(3.7766666666667)"><rect width="6" height="6"></rect></g>
<g transform="translate(638,374) scale(3.7766666666667)"><rect width="6" height="6"></rect></g>
<g transform="translate(704,374) scale(3.7766666666667)"><rect width="6" height="6"></rect></g>
<g transform="translate(726,374) scale(3.7766666666667)"><rect width="6" height="6"></rect></g>
<g transform="translate(748,374) scale(3.7766666666667)"><rect width="6" height="6"></rect></g>
<g transform="translate(792,374) scale(3.7766666666667)"><rect width="6" height="6"></rect></g>
<g transform="translate(814,374) scale(3.7766666666667)"><rect width="6" height="6"></rect></g>
<g transform="translate(858,374) scale(3.7766666666667)"><rect width="6" height="6"></rect></g>
<g transform="translate(924,374) scale(3.7766666666667)"><rect width="6" height="6"></rect></g>
<g transform="translate(44,396) scale(3.7766666666667)"><rect width="6" height="6"></rect></g>
<g transform="translate(66,396) scale(3.7766666666667)"><rect width="6" height="6"></rect></g>
<g transform="translate(88,396) scale(3.7766666666667)"><rect width="6" height="6"></rect></g>
<g transform="translate(110,396) scale(3.7766666666667)"><rect width="6" height="6"></rect></g>
<g transform="translate(154,396) scale(3.7766666666667)"><rect width="6" height="6"></rect></g>
<g transform="translate(176,396) scale(3.7766666666667)"><rect width="6" height="6"></rect></g>
<g transform="translate(198,396) scale(3.7766666666667)"><rect width="6" height="6"></rect></g>
<g transform="translate(220,396) scale(3.7766666666667)"><rect width="6" height="6"></rect></g>
<g transform="translate(286,396) scale(3.7766666666667)"><rect width="6" height="6"></rect></g>
<g transform="translate(374,396) scale(3.7766666666667)"><rect width="6" height="6"></rect></g>
<g transform="translate(440,396) scale(3.7766666666667)"><rect width="6" height="6"></rect></g>
<g transform="translate(462,396) scale(3.7766666666667)"><rect width="6" height="6"></rect></g>
<g transform="translate(484,396) scale(3.7766666666667)"><rect width="6" height="6"></rect></g>
<g transform="translate(506,396) scale(3.7766666666667)"><rect width="6" height="6"></rect></g>
<g transform="translate(528,396) scale(3.7766666666667)"><rect width="6" height="6"></rect></g>
<g transform="translate(572,396) scale(3.7766666666667)"><rect width="6" height="6"></rect></g>
<g transform="translate(594,396) scale(3.7766666666667)"><rect width="6" height="6"></rect></g>
<g transform="translate(638,396) scale(3.7766666666667)"><rect width="6" height="6"></rect></g>
<g transform="translate(682,396) scale(3.7766666666667)"><rect width="6" height="6"></rect></g>
<g transform="translate(726,396) scale(3.7766666666667)"><rect width="6" height="6"></rect></g>
<g transform="translate(770,396) scale(3.7766666666667)"><rect width="6" height="6"></rect></g>
<g transform="translate(814,396) scale(3.7766666666667)"><rect width="6" height="6"></rect></g>
<g transform="translate(880,396) scale(3.7766666666667)"><rect width="6" height="6"></rect></g>
<g transform="translate(924,396) scale(3.7766666666667)"><rect width="6" height="6"></rect></g>
<g transform="translate(66,418) scale(3.7766666666667)"><rect width="6" height="6"></rect></g>
<g transform="translate(198,418) scale(3.7766666666667)"><rect width="6" height="6"></rect></g>
<g transform="translate(220,418) scale(3.7766666666667)"><rect width="6" height="6"></rect></g>
<g transform="translate(242,418) scale(3.7766666666667)"><rect width="6" height="6"></rect></g>
<g transform="translate(396,418) scale(3.7766666666667)"><rect width="6" height="6"></rect></g>
<g transform="translate(418,418) scale(3.7766666666667)"><rect width="6" height="6"></rect></g>
<g transform="translate(462,418) scale(3.7766666666667)"><rect width="6" height="6"></rect></g>
<g transform="translate(506,418) scale(3.7766666666667)"><rect width="6" height="6"></rect></g>
<g transform="translate(572,418) scale(3.7766666666667)"><rect width="6" height="6"></rect></g>
<g transform="translate(594,418) scale(3.7766666666667)"><rect width="6" height="6"></rect></g>
<g transform="translate(660,418) scale(3.7766666666667)"><rect width="6" height="6"></rect></g>
<g transform="translate(682,418) scale(3.7766666666667)"><rect width="6" height="6"></rect></g>
<g transform="translate(726,418) scale(3.7766666666667)"><rect width="6" height="6"></rect></g>
<g transform="translate(748,418) scale(3.7766666666667)"><rect width="6" height="6"></rect></g>
<g transform="translate(792,418) scale(3.7766666666667)"><rect width="6" height="6"></rect></g>
<g transform="translate(814,418) scale(3.7766666666667)"><rect width="6" height="6"></rect></g>
<g transform="translate(836,418) scale(3.7766666666667)"><rect width="6" height="6"></rect></g>
<g transform="translate(858,418) scale(3.7766666666667)"><rect width="6" height="6"></rect></g>
<g transform="translate(880,418) scale(3.7766666666667)"><rect width="6" height="6"></rect></g>
<g transform="translate(902,418) scale(3.7766666666667)"><rect width="6" height="6"></rect></g>
<g transform="translate(924,418) scale(3.7766666666667)"><rect width="6" height="6"></rect></g>
<g transform="translate(44,440) scale(3.7766666666667)"><rect width="6" height="6"></rect></g>
<g transform="translate(88,440) scale(3.7766666666667)"><rect width="6" height="6"></rect></g>
<g transform="translate(154,440) scale(3.7766666666667)"><rect width="6" height="6"></rect></g>
<g transform="translate(176,440) scale(3.7766666666667)"><rect width="6" height="6"></rect></g>
<g transform="translate(374,440) scale(3.7766666666667)"><rect width="6" height="6"></rect></g>
<g transform="translate(396,440) scale(3.7766666666667)"><rect width="6" height="6"></rect></g>
<g transform="translate(462,440) scale(3.7766666666667)"><rect width="6" height="6"></rect></g>
<g transform="translate(484,440) scale(3.7766666666667)"><rect width="6" height="6"></rect></g>
<g transform="translate(572,440) scale(3.7766666666667)"><rect width="6" height="6"></rect></g>
<g transform="translate(616,440) scale(3.7766666666667)"><rect width="6" height="6"></rect></g>
<g transform="translate(638,440) scale(3.7766666666667)"><rect width="6" height="6"></rect></g>
<g transform="translate(660,440) scale(3.7766666666667)"><rect width="6" height="6"></rect></g>
<g transform="translate(682,440) scale(3.7766666666667)"><rect width="6" height="6"></rect></g>
<g transform="translate(748,440) scale(3.7766666666667)"><rect width="6" height="6"></rect></g>
<g transform="translate(792,440) scale(3.7766666666667)"><rect width="6" height="6"></rect></g>
<g transform="translate(836,440) scale(3.7766666666667)"><rect width="6" height="6"></rect></g>
<g transform="translate(858,440) scale(3.7766666666667)"><rect width="6" height="6"></rect></g>
<g transform="translate(880,440) scale(3.7766666666667)"><rect width="6" height="6"></rect></g>
<g transform="translate(66,462) scale(3.7766666666667)"><rect width="6" height="6"></rect></g>
<g transform="translate(88,462) scale(3.7766666666667)"><rect width="6" height="6"></rect></g>
<g transform="translate(242,462) scale(3.7766666666667)"><rect width="6" height="6"></rect></g>
<g transform="translate(264,462) scale(3.7766666666667)"><rect width="6" height="6"></rect></g>
<g transform="translate(308,462) scale(3.7766666666667)"><rect width="6" height="6"></rect></g>
<g transform="translate(374,462) scale(3.7766666666667)"><rect width="6" height="6"></rect></g>
<g transform="translate(462,462) scale(3.7766666666667)"><rect width="6" height="6"></rect></g>
<g transform="translate(550,462) scale(3.7766666666667)"><rect width="6" height="6"></rect></g>
<g transform="translate(638,462) scale(3.7766666666667)"><rect width="6" height="6"></rect></g>
<g transform="translate(682,462) scale(3.7766666666667)"><rect width="6" height="6"></rect></g>
<g transform="translate(704,462) scale(3.7766666666667)"><rect width="6" height="6"></rect></g>
<g transform="translate(748,462) scale(3.7766666666667)"><rect width="6" height="6"></rect></g>
<g transform="translate(836,462) scale(3.7766666666667)"><rect width="6" height="6"></rect></g>
<g transform="translate(858,462) scale(3.7766666666667)"><rect width="6" height="6"></rect></g>
<g transform="translate(902,462) scale(3.7766666666667)"><rect width="6" height="6"></rect></g>
<g transform="translate(924,462) scale(3.7766666666667)"><rect width="6" height="6"></rect></g>
<g transform="translate(44,484) scale(3.7766666666667)"><rect width="6" height="6"></rect></g>
<g transform="translate(66,484) scale(3.7766666666667)"><rect width="6" height="6"></rect></g>
<g transform="translate(88,484) scale(3.7766666666667)"><rect width="6" height="6"></rect></g>
<g transform="translate(176,484) scale(3.7766666666667)"><rect width="6" height="6"></rect></g>
<g transform="translate(220,484) scale(3.7766666666667)"><rect width="6" height="6"></rect></g>
<g transform="translate(264,484) scale(3.7766666666667)"><rect width="6" height="6"></rect></g>
<g transform="translate(352,484) scale(3.7766666666667)"><rect width="6" height="6"></rect></g>
<g transform="translate(396,484) scale(3.7766666666667)"><rect width="6" height="6"></rect></g>
<g transform="translate(418,484) scale(3.7766666666667)"><rect width="6" height="6"></rect></g>
<g transform="translate(462,484) scale(3.7766666666667)"><rect width="6" height="6"></rect></g>
<g transform="translate(506,484) scale(3.7766666666667)"><rect width="6" height="6"></rect></g>
<g transform="translate(528,484) scale(3.7766666666667)"><rect width="6" height="6"></rect></g>
<g transform="translate(550,484) scale(3.7766666666667)"><rect width="6" height="6"></rect></g>
<g transform="translate(594,484) scale(3.7766666666667)"><rect width="6" height="6"></rect></g>
<g transform="translate(616,484) scale(3.7766666666667)"><rect width="6" height="6"></rect></g>
<g transform="translate(726,484) scale(3.7766666666667)"><rect width="6" height="6"></rect></g>
<g transform="translate(814,484) scale(3.7766666666667)"><rect width="6" height="6"></rect></g>
<g transform="translate(858,484) scale(3.7766666666667)"><rect width="6" height="6"></rect></g>
<g transform="translate(880,484) scale(3.7766666666667)"><rect width="6" height="6"></rect></g>
<g transform="translate(924,484) scale(3.7766666666667)"><rect width="6" height="6"></rect></g>
<g transform="translate(88,506) scale(3.7766666666667)"><rect width="6" height="6"></rect></g>
<g transform="translate(110,506) scale(3.7766666666667)"><rect width="6" height="6"></rect></g>
<g transform="translate(132,506) scale(3.7766666666667)"><rect width="6" height="6"></rect></g>
<g transform="translate(154,506) scale(3.7766666666667)"><rect width="6" height="6"></rect></g>
<g transform="translate(198,506) scale(3.7766666666667)"><rect width="6" height="6"></rect></g>
<g transform="translate(220,506) scale(3.7766666666667)"><rect width="6" height="6"></rect></g>
<g transform="translate(264,506) scale(3.7766666666667)"><rect width="6" height="6"></rect></g>
<g transform="translate(286,506) scale(3.7766666666667)"><rect width="6" height="6"></rect></g>
<g transform="translate(330,506) scale(3.7766666666667)"><rect width="6" height="6"></rect></g>
<g transform="translate(352,506) scale(3.7766666666667)"><rect width="6" height="6"></rect></g>
<g transform="translate(396,506) scale(3.7766666666667)"><rect width="6" height="6"></rect></g>
<g transform="translate(418,506) scale(3.7766666666667)"><rect width="6" height="6"></rect></g>
<g transform="translate(440,506) scale(3.7766666666667)"><rect width="6" height="6"></rect></g>
<g transform="translate(462,506) scale(3.7766666666667)"><rect width="6" height="6"></rect></g>
<g transform="translate(506,506) scale(3.7766666666667)"><rect width="6" height="6"></rect></g>
<g transform="translate(550,506) scale(3.7766666666667)"><rect width="6" height="6"></rect></g>
<g transform="translate(594,506) scale(3.7766666666667)"><rect width="6" height="6"></rect></g>
<g transform="translate(616,506) scale(3.7766666666667)"><rect width="6" height="6"></rect></g>
<g transform="translate(682,506) scale(3.7766666666667)"><rect width="6" height="6"></rect></g>
<g transform="translate(704,506) scale(3.7766666666667)"><rect width="6" height="6"></rect></g>
<g transform="translate(726,506) scale(3.7766666666667)"><rect width="6" height="6"></rect></g>
<g transform="translate(748,506) scale(3.7766666666667)"><rect width="6" height="6"></rect></g>
<g transform="translate(770,506) scale(3.7766666666667)"><rect width="6" height="6"></rect></g>
<g transform="translate(792,506) scale(3.7766666666667)"><rect width="6" height="6"></rect></g>
<g transform="translate(814,506) scale(3.7766666666667)"><rect width="6" height="6"></rect></g>
<g transform="translate(836,506) scale(3.7766666666667)"><rect width="6" height="6"></rect></g>
<g transform="translate(880,506) scale(3.7766666666667)"><rect width="6" height="6"></rect></g>
<g transform="translate(902,506) scale(3.7766666666667)"><rect width="6" height="6"></rect></g>
<g transform="translate(924,506) scale(3.7766666666667)"><rect width="6" height="6"></rect></g>
<g transform="translate(66,528) scale(3.7766666666667)"><rect width="6" height="6"></rect></g>
<g transform="translate(132,528) scale(3.7766666666667)"><rect width="6" height="6"></rect></g>
<g transform="translate(176,528) scale(3.7766666666667)"><rect width="6" height="6"></rect></g>
<g transform="translate(242,528) scale(3.7766666666667)"><rect width="6" height="6"></rect></g>
<g transform="translate(264,528) scale(3.7766666666667)"><rect width="6" height="6"></rect></g>
<g transform="translate(286,528) scale(3.7766666666667)"><rect width="6" height="6"></rect></g>
<g transform="translate(308,528) scale(3.7766666666667)"><rect width="6" height="6"></rect></g>
<g transform="translate(330,528) scale(3.7766666666667)"><rect width="6" height="6"></rect></g>
<g transform="translate(374,528) scale(3.7766666666667)"><rect width="6" height="6"></rect></g>
<g transform="translate(396,528) scale(3.7766666666667)"><rect width="6" height="6"></rect></g>
<g transform="translate(418,528) scale(3.7766666666667)"><rect width="6" height="6"></rect></g>
<g transform="translate(440,528) scale(3.7766666666667)"><rect width="6" height="6"></rect></g>
<g transform="translate(462,528) scale(3.7766666666667)"><rect width="6" height="6"></rect></g>
<g transform="translate(528,528) scale(3.7766666666667)"><rect width="6" height="6"></rect></g>
<g transform="translate(638,528) scale(3.7766666666667)"><rect width="6" height="6"></rect></g>
<g transform="translate(660,528) scale(3.7766666666667)"><rect width="6" height="6"></rect></g>
<g transform="translate(704,528) scale(3.7766666666667)"><rect width="6" height="6"></rect></g>
<g transform="translate(748,528) scale(3.7766666666667)"><rect width="6" height="6"></rect></g>
<g transform="translate(792,528) scale(3.7766666666667)"><rect width="6" height="6"></rect></g>
<g transform="translate(858,528) scale(3.7766666666667)"><rect width="6" height="6"></rect></g>
<g transform="translate(66,550) scale(3.7766666666667)"><rect width="6" height="6"></rect></g>
<g transform="translate(110,550) scale(3.7766666666667)"><rect width="6" height="6"></rect></g>
<g transform="translate(154,550) scale(3.7766666666667)"><rect width="6" height="6"></rect></g>
<g transform="translate(198,550) scale(3.7766666666667)"><rect width="6" height="6"></rect></g>
<g transform="translate(220,550) scale(3.7766666666667)"><rect width="6" height="6"></rect></g>
<g transform="translate(286,550) scale(3.7766666666667)"><rect width="6" height="6"></rect></g>
<g transform="translate(308,550) scale(3.7766666666667)"><rect width="6" height="6"></rect></g>
<g transform="translate(352,550) scale(3.7766666666667)"><rect width="6" height="6"></rect></g>
<g transform="translate(506,550) scale(3.7766666666667)"><rect width="6" height="6"></rect></g>
<g transform="translate(528,550) scale(3.7766666666667)"><rect width="6" height="6"></rect></g>
<g transform="translate(594,550) scale(3.7766666666667)"><rect width="6" height="6"></rect></g>
<g transform="translate(660,550) scale(3.7766666666667)"><rect width="6" height="6"></rect></g>
<g transform="translate(726,550) scale(3.7766666666667)"><rect width="6" height="6"></rect></g>
<g transform="translate(770,550) scale(3.7766666666667)"><rect width="6" height="6"></rect></g>
<g transform="translate(814,550) scale(3.7766666666667)"><rect width="6" height="6"></rect></g>
<g transform="translate(858,550) scale(3.7766666666667)"><rect width="6" height="6"></rect></g>
<g transform="translate(66,572) scale(3.7766666666667)"><rect width="6" height="6"></rect></g>
<g transform="translate(110,572) scale(3.7766666666667)"><rect width="6" height="6"></rect></g>
<g transform="translate(154,572) scale(3.7766666666667)"><rect width="6" height="6"></rect></g>
<g transform="translate(176,572) scale(3.7766666666667)"><rect width="6" height="6"></rect></g>
<g transform="translate(198,572) scale(3.7766666666667)"><rect width="6" height="6"></rect></g>
<g transform="translate(220,572) scale(3.7766666666667)"><rect width="6" height="6"></rect></g>
<g transform="translate(242,572) scale(3.7766666666667)"><rect width="6" height="6"></rect></g>
<g transform="translate(264,572) scale(3.7766666666667)"><rect width="6" height="6"></rect></g>
<g transform="translate(352,572) scale(3.7766666666667)"><rect width="6" height="6"></rect></g>
<g transform="translate(418,572) scale(3.7766666666667)"><rect width="6" height="6"></rect></g>
<g transform="translate(440,572) scale(3.7766666666667)"><rect width="6" height="6"></rect></g>
<g transform="translate(484,572) scale(3.7766666666667)"><rect width="6" height="6"></rect></g>
<g transform="translate(528,572) scale(3.7766666666667)"><rect width="6" height="6"></rect></g>
<g transform="translate(550,572) scale(3.7766666666667)"><rect width="6" height="6"></rect></g>
<g transform="translate(660,572) scale(3.7766666666667)"><rect width="6" height="6"></rect></g>
<g transform="translate(682,572) scale(3.7766666666667)"><rect width="6" height="6"></rect></g>
<g transform="translate(880,572) scale(3.7766666666667)"><rect width="6" height="6"></rect></g>
<g transform="translate(902,572) scale(3.7766666666667)"><rect width="6" height="6"></rect></g>
<g transform="translate(44,594) scale(3.7766666666667)"><rect width="6" height="6"></rect></g>
<g transform="translate(88,594) scale(3.7766666666667)"><rect width="6" height="6"></rect></g>
<g transform="translate(110,594) scale(3.7766666666667)"><rect width="6" height="6"></rect></g>
<g transform="translate(154,594) scale(3.7766666666667)"><rect width="6" height="6"></rect></g>
<g transform="translate(220,594) scale(3.7766666666667)"><rect width="6" height="6"></rect></g>
<g transform="translate(264,594) scale(3.7766666666667)"><rect width="6" height="6"></rect></g>
<g transform="translate(286,594) scale(3.7766666666667)"><rect width="6" height="6"></rect></g>
<g transform="translate(308,594) scale(3.7766666666667)"><rect width="6" height="6"></rect></g>
<g transform="translate(418,594) scale(3.7766666666667)"><rect width="6" height="6"></rect></g>
<g transform="translate(462,594) scale(3.7766666666667)"><rect width="6" height="6"></rect></g>
<g transform="translate(528,594) scale(3.7766666666667)"><rect width="6" height="6"></rect></g>
<g transform="translate(550,594) scale(3.7766666666667)"><rect width="6" height="6"></rect></g>
<g transform="translate(572,594) scale(3.7766666666667)"><rect width="6" height="6"></rect></g>
<g transform="translate(594,594) scale(3.7766666666667)"><rect width="6" height="6"></rect></g>
<g transform="translate(660,594) scale(3.7766666666667)"><rect width="6" height="6"></rect></g>
<g transform="translate(726,594) scale(3.7766666666667)"><rect width="6" height="6"></rect></g>
<g transform="translate(770,594) scale(3.7766666666667)"><rect width="6" height="6"></rect></g>
<g transform="translate(792,594) scale(3.7766666666667)"><rect width="6" height="6"></rect></g>
<g transform="translate(814,594) scale(3.7766666666667)"><rect width="6" height="6"></rect></g>
<g transform="translate(836,594) scale(3.7766666666667)"><rect width="6" height="6"></rect></g>
<g transform="translate(858,594) scale(3.7766666666667)"><rect width="6" height="6"></rect></g>
<g transform="translate(924,594) scale(3.7766666666667)"><rect width="6" height="6"></rect></g>
<g transform="translate(132,616) scale(3.7766666666667)"><rect width="6" height="6"></rect></g>
<g transform="translate(154,616) scale(3.7766666666667)"><rect width="6" height="6"></rect></g>
<g transform="translate(176,616) scale(3.7766666666667)"><rect width="6" height="6"></rect></g>
<g transform="translate(198,616) scale(3.7766666666667)"><rect width="6" height="6"></rect></g>
<g transform="translate(220,616) scale(3.7766666666667)"><rect width="6" height="6"></rect></g>
<g transform="translate(264,616) scale(3.7766666666667)"><rect width="6" height="6"></rect></g>
<g transform="translate(308,616) scale(3.7766666666667)"><rect width="6" height="6"></rect></g>
<g transform="translate(374,616) scale(3.7766666666667)"><rect width="6" height="6"></rect></g>
<g transform="translate(506,616) scale(3.7766666666667)"><rect width="6" height="6"></rect></g>
<g transform="translate(550,616) scale(3.7766666666667)"><rect width="6" height="6"></rect></g>
<g transform="translate(594,616) scale(3.7766666666667)"><rect width="6" height="6"></rect></g>
<g transform="translate(616,616) scale(3.7766666666667)"><rect width="6" height="6"></rect></g>
<g transform="translate(638,616) scale(3.7766666666667)"><rect width="6" height="6"></rect></g>
<g transform="translate(748,616) scale(3.7766666666667)"><rect width="6" height="6"></rect></g>
<g transform="translate(792,616) scale(3.7766666666667)"><rect width="6" height="6"></rect></g>
<g transform="translate(814,616) scale(3.7766666666667)"><rect width="6" height="6"></rect></g>
<g transform="translate(836,616) scale(3.7766666666667)"><rect width="6" height="6"></rect></g>
<g transform="translate(88,638) scale(3.7766666666667)"><rect width="6" height="6"></rect></g>
<g transform="translate(132,638) scale(3.7766666666667)"><rect width="6" height="6"></rect></g>
<g transform="translate(154,638) scale(3.7766666666667)"><rect width="6" height="6"></rect></g>
<g transform="translate(242,638) scale(3.7766666666667)"><rect width="6" height="6"></rect></g>
<g transform="translate(264,638) scale(3.7766666666667)"><rect width="6" height="6"></rect></g>
<g transform="translate(286,638) scale(3.7766666666667)"><rect width="6" height="6"></rect></g>
<g transform="translate(330,638) scale(3.7766666666667)"><rect width="6" height="6"></rect></g>
<g transform="translate(374,638) scale(3.7766666666667)"><rect width="6" height="6"></rect></g>
<g transform="translate(440,638) scale(3.7766666666667)"><rect width="6" height="6"></rect></g>
<g transform="translate(484,638) scale(3.7766666666667)"><rect width="6" height="6"></rect></g>
<g transform="translate(506,638) scale(3.7766666666667)"><rect width="6" height="6"></rect></g>
<g transform="translate(528,638) scale(3.7766666666667)"><rect width="6" height="6"></rect></g>
<g transform="translate(550,638) scale(3.7766666666667)"><rect width="6" height="6"></rect></g>
<g transform="translate(572,638) scale(3.7766666666667)"><rect width="6" height="6"></rect></g>
<g transform="translate(594,638) scale(3.7766666666667)"><rect width="6" height="6"></rect></g>
<g transform="translate(616,638) scale(3.7766666666667)"><rect width="6" height="6"></rect></g>
<g transform="translate(638,638) scale(3.7766666666667)"><rect width="6" height="6"></rect></g>
<g transform="translate(726,638) scale(3.7766666666667)"><rect width="6" height="6"></rect></g>
<g transform="translate(748,638) scale(3.7766666666667)"><rect width="6" height="6"></rect></g>
<g transform="translate(770,638) scale(3.7766666666667)"><rect width="6" height="6"></rect></g>
<g transform="translate(792,638) scale(3.7766666666667)"><rect width="6" height="6"></rect></g>
<g transform="translate(836,638) scale(3.7766666666667)"><rect width="6" height="6"></rect></g>
<g transform="translate(858,638) scale(3.7766666666667)"><rect width="6" height="6"></rect></g>
<g transform="translate(44,660) scale(3.7766666666667)"><rect width="6" height="6"></rect></g>
<g transform="translate(66,660) scale(3.7766666666667)"><rect width="6" height="6"></rect></g>
<g transform="translate(88,660) scale(3.7766666666667)"><rect width="6" height="6"></rect></g>
<g transform="translate(110,660) scale(3.7766666666667)"><rect width="6" height="6"></rect></g>
<g transform="translate(132,660) scale(3.7766666666667)"><rect width="6" height="6"></rect></g>
<g transform="translate(176,660) scale(3.7766666666667)"><rect width="6" height="6"></rect></g>
<g transform="translate(198,660) scale(3.7766666666667)"><rect width="6" height="6"></rect></g>
<g transform="translate(220,660) scale(3.7766666666667)"><rect width="6" height="6"></rect></g>
<g transform="translate(242,660) scale(3.7766666666667)"><rect width="6" height="6"></rect></g>
<g transform="translate(264,660) scale(3.7766666666667)"><rect width="6" height="6"></rect></g>
<g transform="translate(308,660) scale(3.7766666666667)"><rect width="6" height="6"></rect></g>
<g transform="translate(330,660) scale(3.7766666666667)"><rect width="6" height="6"></rect></g>
<g transform="translate(374,660) scale(3.7766666666667)"><rect width="6" height="6"></rect></g>
<g transform="translate(396,660) scale(3.7766666666667)"><rect width="6" height="6"></rect></g>
<g transform="translate(418,660) scale(3.7766666666667)"><rect width="6" height="6"></rect></g>
<g transform="translate(440,660) scale(3.7766666666667)"><rect width="6" height="6"></rect></g>
<g transform="translate(462,660) scale(3.7766666666667)"><rect width="6" height="6"></rect></g>
<g transform="translate(484,660) scale(3.7766666666667)"><rect width="6" height="6"></rect></g>
<g transform="translate(506,660) scale(3.7766666666667)"><rect width="6" height="6"></rect></g>
<g transform="translate(572,660) scale(3.7766666666667)"><rect width="6" height="6"></rect></g>
<g transform="translate(594,660) scale(3.7766666666667)"><rect width="6" height="6"></rect></g>
<g transform="translate(616,660) scale(3.7766666666667)"><rect width="6" height="6"></rect></g>
<g transform="translate(682,660) scale(3.7766666666667)"><rect width="6" height="6"></rect></g>
<g transform="translate(726,660) scale(3.7766666666667)"><rect width="6" height="6"></rect></g>
<g transform="translate(748,660) scale(3.7766666666667)"><rect width="6" height="6"></rect></g>
<g transform="translate(792,660) scale(3.7766666666667)"><rect width="6" height="6"></rect></g>
<g transform="translate(858,660) scale(3.7766666666667)"><rect width="6" height="6"></rect></g>
<g transform="translate(880,660) scale(3.7766666666667)"><rect width="6" height="6"></rect></g>
<g transform="translate(902,660) scale(3.7766666666667)"><rect width="6" height="6"></rect></g>
<g transform="translate(44,682) scale(3.7766666666667)"><rect width="6" height="6"></rect></g>
<g transform="translate(66,682) scale(3.7766666666667)"><rect width="6" height="6"></rect></g>
<g transform="translate(110,682) scale(3.7766666666667)"><rect width="6" height="6"></rect></g>
<g transform="translate(132,682) scale(3.7766666666667)"><rect width="6" height="6"></rect></g>
<g transform="translate(154,682) scale(3.7766666666667)"><rect width="6" height="6"></rect></g>
<g transform="translate(198,682) scale(3.7766666666667)"><rect width="6" height="6"></rect></g>
<g transform="translate(264,682) scale(3.7766666666667)"><rect width="6" height="6"></rect></g>
<g transform="translate(286,682) scale(3.7766666666667)"><rect width="6" height="6"></rect></g>
<g transform="translate(330,682) scale(3.7766666666667)"><rect width="6" height="6"></rect></g>
<g transform="translate(396,682) scale(3.7766666666667)"><rect width="6" height="6"></rect></g>
<g transform="translate(506,682) scale(3.7766666666667)"><rect width="6" height="6"></rect></g>
<g transform="translate(550,682) scale(3.7766666666667)"><rect width="6" height="6"></rect></g>
<g transform="translate(572,682) scale(3.7766666666667)"><rect width="6" height="6"></rect></g>
<g transform="translate(594,682) scale(3.7766666666667)"><rect width="6" height="6"></rect></g>
<g transform="translate(616,682) scale(3.7766666666667)"><rect width="6" height="6"></rect></g>
<g transform="translate(638,682) scale(3.7766666666667)"><rect width="6" height="6"></rect></g>
<g transform="translate(660,682) scale(3.7766666666667)"><rect width="6" height="6"></rect></g>
<g transform="translate(704,682) scale(3.7766666666667)"><rect width="6" height="6"></rect></g>
<g transform="translate(770,682) scale(3.7766666666667)"><rect width="6" height="6"></rect></g>
<g transform="translate(836,682) scale(3.7766666666667)"><rect width="6" height="6"></rect></g>
<g transform="translate(858,682) scale(3.7766666666667)"><rect width="6" height="6"></rect></g>
<g transform="translate(880,682) scale(3.7766666666667)"><rect width="6" height="6"></rect></g>
<g transform="translate(902,682) scale(3.7766666666667)"><rect width="6" height="6"></rect></g>
<g transform="translate(924,682) scale(3.7766666666667)"><rect width="6" height="6"></rect></g>
<g transform="translate(44,704) scale(3.7766666666667)"><rect width="6" height="6"></rect></g>
<g transform="translate(110,704) scale(3.7766666666667)"><rect width="6" height="6"></rect></g>
<g transform="translate(132,704) scale(3.7766666666667)"><rect width="6" height="6"></rect></g>
<g transform="translate(154,704) scale(3.7766666666667)"><rect width="6" height="6"></rect></g>
<g transform="translate(176,704) scale(3.7766666666667)"><rect width="6" height="6"></rect></g>
<g transform="translate(264,704) scale(3.7766666666667)"><rect width="6" height="6"></rect></g>
<g transform="translate(308,704) scale(3.7766666666667)"><rect width="6" height="6"></rect></g>
<g transform="translate(374,704) scale(3.7766666666667)"><rect width="6" height="6"></rect></g>
<g transform="translate(396,704) scale(3.7766666666667)"><rect width="6" height="6"></rect></g>
<g transform="translate(440,704) scale(3.7766666666667)"><rect width="6" height="6"></rect></g>
<g transform="translate(484,704) scale(3.7766666666667)"><rect width="6" height="6"></rect></g>
<g transform="translate(506,704) scale(3.7766666666667)"><rect width="6" height="6"></rect></g>
<g transform="translate(550,704) scale(3.7766666666667)"><rect width="6" height="6"></rect></g>
<g transform="translate(594,704) scale(3.7766666666667)"><rect width="6" height="6"></rect></g>
<g transform="translate(704,704) scale(3.7766666666667)"><rect width="6" height="6"></rect></g>
<g transform="translate(748,704) scale(3.7766666666667)"><rect width="6" height="6"></rect></g>
<g transform="translate(770,704) scale(3.7766666666667)"><rect width="6" height="6"></rect></g>
<g transform="translate(792,704) scale(3.7766666666667)"><rect width="6" height="6"></rect></g>
<g transform="translate(814,704) scale(3.7766666666667)"><rect width="6" height="6"></rect></g>
<g transform="translate(836,704) scale(3.7766666666667)"><rect width="6" height="6"></rect></g>
<g transform="translate(858,704) scale(3.7766666666667)"><rect width="6" height="6"></rect></g>
<g transform="translate(880,704) scale(3.7766666666667)"><rect width="6" height="6"></rect></g>
<g transform="translate(44,726) scale(3.7766666666667)"><rect width="6" height="6"></rect></g>
<g transform="translate(264,726) scale(3.7766666666667)"><rect width="6" height="6"></rect></g>
<g transform="translate(330,726) scale(3.7766666666667)"><rect width="6" height="6"></rect></g>
<g transform="translate(374,726) scale(3.7766666666667)"><rect width="6" height="6"></rect></g>
<g transform="translate(396,726) scale(3.7766666666667)"><rect width="6" height="6"></rect></g>
<g transform="translate(440,726) scale(3.7766666666667)"><rect width="6" height="6"></rect></g>
<g transform="translate(550,726) scale(3.7766666666667)"><rect width="6" height="6"></rect></g>
<g transform="translate(572,726) scale(3.7766666666667)"><rect width="6" height="6"></rect></g>
<g transform="translate(594,726) scale(3.7766666666667)"><rect width="6" height="6"></rect></g>
<g transform="translate(616,726) scale(3.7766666666667)"><rect width="6" height="6"></rect></g>
<g transform="translate(660,726) scale(3.7766666666667)"><rect width="6" height="6"></rect></g>
<g transform="translate(704,726) scale(3.7766666666667)"><rect width="6" height="6"></rect></g>
<g transform="translate(770,726) scale(3.7766666666667)"><rect width="6" height="6"></rect></g>
<g transform="translate(792,726) scale(3.7766666666667)"><rect width="6" height="6"></rect></g>
<g transform="translate(814,726) scale(3.7766666666667)"><rect width="6" height="6"></rect></g>
<g transform="translate(858,726) scale(3.7766666666667)"><rect width="6" height="6"></rect></g>
<g transform="translate(902,726) scale(3.7766666666667)"><rect width="6" height="6"></rect></g>
<g transform="translate(924,726) scale(3.7766666666667)"><rect width="6" height="6"></rect></g>
<g transform="translate(44,748) scale(3.7766666666667)"><rect width="6" height="6"></rect></g>
<g transform="translate(110,748) scale(3.7766666666667)"><rect width="6" height="6"></rect></g>
<g transform="translate(132,748) scale(3.7766666666667)"><rect width="6" height="6"></rect></g>
<g transform="translate(154,748) scale(3.7766666666667)"><rect width="6" height="6"></rect></g>
<g transform="translate(176,748) scale(3.7766666666667)"><rect width="6" height="6"></rect></g>
<g transform="translate(198,748) scale(3.7766666666667)"><rect width="6" height="6"></rect></g>
<g transform="translate(286,748) scale(3.7766666666667)"><rect width="6" height="6"></rect></g>
<g transform="translate(330,748) scale(3.7766666666667)"><rect width="6" height="6"></rect></g>
<g transform="translate(374,748) scale(3.7766666666667)"><rect width="6" height="6"></rect></g>
<g transform="translate(396,748) scale(3.7766666666667)"><rect width="6" height="6"></rect></g>
<g transform="translate(418,748) scale(3.7766666666667)"><rect width="6" height="6"></rect></g>
<g transform="translate(506,748) scale(3.7766666666667)"><rect width="6" height="6"></rect></g>
<g transform="translate(528,748) scale(3.7766666666667)"><rect width="6" height="6"></rect></g>
<g transform="translate(550,748) scale(3.7766666666667)"><rect width="6" height="6"></rect></g>
<g transform="translate(572,748) scale(3.7766666666667)"><rect width="6" height="6"></rect></g>
<g transform="translate(682,748) scale(3.7766666666667)"><rect width="6" height="6"></rect></g>
<g transform="translate(748,748) scale(3.7766666666667)"><rect width="6" height="6"></rect></g>
<g transform="translate(770,748) scale(3.7766666666667)"><rect width="6" height="6"></rect></g>
<g transform="translate(792,748) scale(3.7766666666667)"><rect width="6" height="6"></rect></g>
<g transform="translate(814,748) scale(3.7766666666667)"><rect width="6" height="6"></rect></g>
<g transform="translate(836,748) scale(3.7766666666667)"><rect width="6" height="6"></rect></g>
<g transform="translate(880,748) scale(3.7766666666667)"><rect width="6" height="6"></rect></g>
<g transform="translate(902,748) scale(3.7766666666667)"><rect width="6" height="6"></rect></g>
<g transform="translate(220,770) scale(3.7766666666667)"><rect width="6" height="6"></rect></g>
<g transform="translate(242,770) scale(3.7766666666667)"><rect width="6" height="6"></rect></g>
<g transform="translate(286,770) scale(3.7766666666667)"><rect width="6" height="6"></rect></g>
<g transform="translate(396,770) scale(3.7766666666667)"><rect width="6" height="6"></rect></g>
<g transform="translate(418,770) scale(3.7766666666667)"><rect width="6" height="6"></rect></g>
<g transform="translate(440,770) scale(3.7766666666667)"><rect width="6" height="6"></rect></g>
<g transform="translate(594,770) scale(3.7766666666667)"><rect width="6" height="6"></rect></g>
<g transform="translate(660,770) scale(3.7766666666667)"><rect width="6" height="6"></rect></g>
<g transform="translate(704,770) scale(3.7766666666667)"><rect width="6" height="6"></rect></g>
<g transform="translate(748,770) scale(3.7766666666667)"><rect width="6" height="6"></rect></g>
<g transform="translate(836,770) scale(3.7766666666667)"><rect width="6" height="6"></rect></g>
<g transform="translate(858,770) scale(3.7766666666667)"><rect width="6" height="6"></rect></g>
<g transform="translate(902,770) scale(3.7766666666667)"><rect width="6" height="6"></rect></g>
<g transform="translate(924,770) scale(3.7766666666667)"><rect width="6" height="6"></rect></g>
<g transform="translate(242,792) scale(3.7766666666667)"><rect width="6" height="6"></rect></g>
<g transform="translate(286,792) scale(3.7766666666667)"><rect width="6" height="6"></rect></g>
<g transform="translate(330,792) scale(3.7766666666667)"><rect width="6" height="6"></rect></g>
<g transform="translate(352,792) scale(3.7766666666667)"><rect width="6" height="6"></rect></g>
<g transform="translate(396,792) scale(3.7766666666667)"><rect width="6" height="6"></rect></g>
<g transform="translate(440,792) scale(3.7766666666667)"><rect width="6" height="6"></rect></g>
<g transform="translate(462,792) scale(3.7766666666667)"><rect width="6" height="6"></rect></g>
<g transform="translate(638,792) scale(3.7766666666667)"><rect width="6" height="6"></rect></g>
<g transform="translate(704,792) scale(3.7766666666667)"><rect width="6" height="6"></rect></g>
<g transform="translate(726,792) scale(3.7766666666667)"><rect width="6" height="6"></rect></g>
<g transform="translate(748,792) scale(3.7766666666667)"><rect width="6" height="6"></rect></g>
<g transform="translate(792,792) scale(3.7766666666667)"><rect width="6" height="6"></rect></g>
<g transform="translate(836,792) scale(3.7766666666667)"><rect width="6" height="6"></rect></g>
<g transform="translate(902,792) scale(3.7766666666667)"><rect width="6" height="6"></rect></g>
<g transform="translate(264,814) scale(3.7766666666667)"><rect width="6" height="6"></rect></g>
<g transform="translate(308,814) scale(3.7766666666667)"><rect width="6" height="6"></rect></g>
<g transform="translate(396,814) scale(3.7766666666667)"><rect width="6" height="6"></rect></g>
<g transform="translate(418,814) scale(3.7766666666667)"><rect width="6" height="6"></rect></g>
<g transform="translate(484,814) scale(3.7766666666667)"><rect width="6" height="6"></rect></g>
<g transform="translate(506,814) scale(3.7766666666667)"><rect width="6" height="6"></rect></g>
<g transform="translate(550,814) scale(3.7766666666667)"><rect width="6" height="6"></rect></g>
<g transform="translate(572,814) scale(3.7766666666667)"><rect width="6" height="6"></rect></g>
<g transform="translate(638,814) scale(3.7766666666667)"><rect width="6" height="6"></rect></g>
<g transform="translate(660,814) scale(3.7766666666667)"><rect width="6" height="6"></rect></g>
<g transform="translate(748,814) scale(3.7766666666667)"><rect width="6" height="6"></rect></g>
<g transform="translate(836,814) scale(3.7766666666667)"><rect width="6" height="6"></rect></g>
<g transform="translate(858,814) scale(3.7766666666667)"><rect width="6" height="6"></rect></g>
<g transform="translate(902,814) scale(3.7766666666667)"><rect width="6" height="6"></rect></g>
<g transform="translate(924,814) scale(3.7766666666667)"><rect width="6" height="6"></rect></g>
<g transform="translate(220,836) scale(3.7766666666667)"><rect width="6" height="6"></rect></g>
<g transform="translate(308,836) scale(3.7766666666667)"><rect width="6" height="6"></rect></g>
<g transform="translate(352,836) scale(3.7766666666667)"><rect width="6" height="6"></rect></g>
<g transform="translate(374,836) scale(3.7766666666667)"><rect width="6" height="6"></rect></g>
<g transform="translate(396,836) scale(3.7766666666667)"><rect width="6" height="6"></rect></g>
<g transform="translate(418,836) scale(3.7766666666667)"><rect width="6" height="6"></rect></g>
<g transform="translate(440,836) scale(3.7766666666667)"><rect width="6" height="6"></rect></g>
<g transform="translate(484,836) scale(3.7766666666667)"><rect width="6" height="6"></rect></g>
<g transform="translate(506,836) scale(3.7766666666667)"><rect width="6" height="6"></rect></g>
<g transform="translate(528,836) scale(3.7766666666667)"><rect width="6" height="6"></rect></g>
<g transform="translate(550,836) scale(3.7766666666667)"><rect width="6" height="6"></rect></g>
<g transform="translate(572,836) scale(3.7766666666667)"><rect width="6" height="6"></rect></g>
<g transform="translate(594,836) scale(3.7766666666667)"><rect width="6" height="6"></rect></g>
<g transform="translate(616,836) scale(3.7766666666667)"><rect width="6" height="6"></rect></g>
<g transform="translate(704,836) scale(3.7766666666667)"><rect width="6" height="6"></rect></g>
<g transform="translate(748,836) scale(3.7766666666667)"><rect width="6" height="6"></rect></g>
<g transform="translate(770,836) scale(3.7766666666667)"><rect width="6" height="6"></rect></g>
<g transform="translate(792,836) scale(3.7766666666667)"><rect width="6" height="6"></rect></g>
<g transform="translate(814,836) scale(3.7766666666667)"><rect width="6" height="6"></rect></g>
<g transform="translate(836,836) scale(3.7766666666667)"><rect width="6" height="6"></rect></g>
<g transform="translate(880,836) scale(3.7766666666667)"><rect width="6" height="6"></rect></g>
<g transform="translate(902,836) scale(3.7766666666667)"><rect width="6" height="6"></rect></g>
<g transform="translate(220,858) scale(3.7766666666667)"><rect width="6" height="6"></rect></g>
<g transform="translate(242,858) scale(3.7766666666667)"><rect width="6" height="6"></rect></g>
<g transform="translate(264,858) scale(3.7766666666667)"><rect width="6" height="6"></rect></g>
<g transform="translate(308,858) scale(3.7766666666667)"><rect width="6" height="6"></rect></g>
<g transform="translate(330,858) scale(3.7766666666667)"><rect width="6" height="6"></rect></g>
<g transform="translate(352,858) scale(3.7766666666667)"><rect width="6" height="6"></rect></g>
<g transform="translate(374,858) scale(3.7766666666667)"><rect width="6" height="6"></rect></g>
<g transform="translate(440,858) scale(3.7766666666667)"><rect width="6" height="6"></rect></g>
<g transform="translate(462,858) scale(3.7766666666667)"><rect width="6" height="6"></rect></g>
<g transform="translate(484,858) scale(3.7766666666667)"><rect width="6" height="6"></rect></g>
<g transform="translate(550,858) scale(3.7766666666667)"><rect width="6" height="6"></rect></g>
<g transform="translate(660,858) scale(3.7766666666667)"><rect width="6" height="6"></rect></g>
<g transform="translate(726,858) scale(3.7766666666667)"><rect width="6" height="6"></rect></g>
<g transform="translate(770,858) scale(3.7766666666667)"><rect width="6" height="6"></rect></g>
<g transform="translate(814,858) scale(3.7766666666667)"><rect width="6" height="6"></rect></g>
<g transform="translate(858,858) scale(3.7766666666667)"><rect width="6" height="6"></rect></g>
<g transform="translate(880,858) scale(3.7766666666667)"><rect width="6" height="6"></rect></g>
<g transform="translate(924,858) scale(3.7766666666667)"><rect width="6" height="6"></rect></g>
<g transform="translate(220,880) scale(3.7766666666667)"><rect width="6" height="6"></rect></g>
<g transform="translate(242,880) scale(3.7766666666667)"><rect width="6" height="6"></rect></g>
<g transform="translate(264,880) scale(3.7766666666667)"><rect width="6" height="6"></rect></g>
<g transform="translate(308,880) scale(3.7766666666667)"><rect width="6" height="6"></rect></g>
<g transform="translate(330,880) scale(3.7766666666667)"><rect width="6" height="6"></rect></g>
<g transform="translate(374,880) scale(3.7766666666667)"><rect width="6" height="6"></rect></g>
<g transform="translate(396,880) scale(3.7766666666667)"><rect width="6" height="6"></rect></g>
<g transform="translate(484,880) scale(3.7766666666667)"><rect width="6" height="6"></rect></g>
<g transform="translate(528,880) scale(3.7766666666667)"><rect width="6" height="6"></rect></g>
<g transform="translate(550,880) scale(3.7766666666667)"><rect width="6" height="6"></rect></g>
<g transform="translate(616,880) scale(3.7766666666667)"><rect width="6" height="6"></rect></g>
<g transform="translate(638,880) scale(3.7766666666667)"><rect width="6" height="6"></rect></g>
<g transform="translate(726,880) scale(3.7766666666667)"><rect width="6" height="6"></rect></g>
<g transform="translate(770,880) scale(3.7766666666667)"><rect width="6" height="6"></rect></g>
<g transform="translate(792,880) scale(3.7766666666667)"><rect width="6" height="6"></rect></g>
<g transform="translate(814,880) scale(3.7766666666667)"><rect width="6" height="6"></rect></g>
<g transform="translate(836,880) scale(3.7766666666667)"><rect width="6" height="6"></rect></g>
<g transform="translate(858,880) scale(3.7766666666667)"><rect width="6" height="6"></rect></g>
<g transform="translate(880,880) scale(3.7766666666667)"><rect width="6" height="6"></rect></g>
<g transform="translate(902,880) scale(3.7766666666667)"><rect width="6" height="6"></rect></g>
<g transform="translate(264,902) scale(3.7766666666667)"><rect width="6" height="6"></rect></g>
<g transform="translate(286,902) scale(3.7766666666667)"><rect width="6" height="6"></rect></g>
<g transform="translate(308,902) scale(3.7766666666667)"><rect width="6" height="6"></rect></g>
<g transform="translate(330,902) scale(3.7766666666667)"><rect width="6" height="6"></rect></g>
<g transform="translate(352,902) scale(3.7766666666667)"><rect width="6" height="6"></rect></g>
<g transform="translate(374,902) scale(3.7766666666667)"><rect width="6" height="6"></rect></g>
<g transform="translate(440,902) scale(3.7766666666667)"><rect width="6" height="6"></rect></g>
<g transform="translate(484,902) scale(3.7766666666667)"><rect width="6" height="6"></rect></g>
<g transform="translate(506,902) scale(3.7766666666667)"><rect width="6" height="6"></rect></g>
<g transform="translate(594,902) scale(3.7766666666667)"><rect width="6" height="6"></rect></g>
<g transform="translate(638,902) scale(3.7766666666667)"><rect width="6" height="6"></rect></g>
<g transform="translate(660,902) scale(3.7766666666667)"><rect width="6" height="6"></rect></g>
<g transform="translate(704,902) scale(3.7766666666667)"><rect width="6" height="6"></rect></g>
<g transform="translate(748,902) scale(3.7766666666667)"><rect width="6" height="6"></rect></g>
<g transform="translate(770,902) scale(3.7766666666667)"><rect width="6" height="6"></rect></g>
<g transform="translate(792,902) scale(3.7766666666667)"><rect width="6" height="6"></rect></g>
<g transform="translate(836,902) scale(3.7766666666667)"><rect width="6" height="6"></rect></g>
<g transform="translate(858,902) scale(3.7766666666667)"><rect width="6" height="6"></rect></g>
<g transform="translate(902,902) scale(3.7766666666667)"><rect width="6" height="6"></rect></g>
<g transform="translate(242,924) scale(3.7766666666667)"><rect width="6" height="6"></rect></g>
<g transform="translate(264,924) scale(3.7766666666667)"><rect width="6" height="6"></rect></g>
<g transform="translate(286,924) scale(3.7766666666667)"><rect width="6" height="6"></rect></g>
<g transform="translate(330,924) scale(3.7766666666667)"><rect width="6" height="6"></rect></g>
<g transform="translate(374,924) scale(3.7766666666667)"><rect width="6" height="6"></rect></g>
<g transform="translate(484,924) scale(3.7766666666667)"><rect width="6" height="6"></rect></g>
<g transform="translate(506,924) scale(3.7766666666667)"><rect width="6" height="6"></rect></g>
<g transform="translate(528,924) scale(3.7766666666667)"><rect width="6" height="6"></rect></g>
<g transform="translate(550,924) scale(3.7766666666667)"><rect width="6" height="6"></rect></g>
<g transform="translate(594,924) scale(3.7766666666667)"><rect width="6" height="6"></rect></g>
<g transform="translate(616,924) scale(3.7766666666667)"><rect width="6" height="6"></rect></g>
<g transform="translate(682,924) scale(3.7766666666667)"><rect width="6" height="6"></rect></g>
<g transform="translate(726,924) scale(3.7766666666667)"><rect width="6" height="6"></rect></g>
<g transform="translate(814,924) scale(3.7766666666667)"><rect width="6" height="6"></rect></g>
<g transform="translate(836,924) scale(3.7766666666667)"><rect width="6" height="6"></rect></g>
<g transform="translate(880,924) scale(3.7766666666667)"><rect width="6" height="6"></rect></g>
</g><g><g transform="translate(44,44)" fill="#000000"><g transform="scale(11)"><path d="M0,0v14h14V0H0z M12,12H2V2h10V12z"></path></g></g>
<g transform="translate(792,44)" fill="#000000"><g transform="scale(11)"><path d="M0,0v14h14V0H0z M12,12H2V2h10V12z"></path></g></g>
<g transform="translate(44,792)" fill="#000000"><g transform="scale(11)"><path d="M0,0v14h14V0H0z M12,12H2V2h10V12z"></path></g></g>
<g transform="translate(88,88)" fill="#000000"><g transform="scale(11)"><rect width="6" height="6"></rect></g></g>
<g transform="translate(836,88)" fill="#000000"><g transform="scale(11)"><rect width="6" height="6"></rect></g></g>
<g transform="translate(88,836)" fill="#000000"><g transform="scale(11)"><rect width="6" height="6"></rect></g></g></g>
</svg>